# Alias OBJ Model File
# Exported from SketchUp, (c) 2000-2012 Trimble Navigation Limited
# File units = centimeters

mtllib Pir.mtl

g Mesh1 Model

usemtl FrontColor
v 263.219 45 -125.555
vt 103.63 49.4312
vn 0 1 -0
v 262.719 45 -125.555
vt 103.433 49.4312
v 262.719 45 -125.055
vt 103.433 49.2343
v 263.219 45 -125.055
vt 103.63 49.2343
f 1/1/1 2/2/1 3/3/1 4/4/1 

vt -103.63 17.7165
vn 0 0 -1
v 263.219 43.8889 -125.555
vt -103.63 17.2791
v 262.969 43.8889 -125.555
vt -103.531 17.2791
v 262.719 43.8889 -125.555
vt -103.433 17.2791
vt -103.433 17.7165
f 1/5/2 5/6/2 6/7/2 7/8/2 2/9/2 

vt 49.2343 17.7165
vn 1 0 -0
v 263.219 43.8889 -125.055
vt 49.2343 17.2791
v 263.219 43.8889 -125.305
vt 49.3328 17.2791
vt 49.4312 17.2791
vt 49.4312 17.7165
f 4/10/3 8/11/3 9/12/3 5/13/3 1/14/3 

vt 103.433 17.7165
vn 0 0 1
v 262.719 43.8889 -125.055
vt 103.433 17.2791
v 262.969 43.8889 -125.055
vt 103.531 17.2791
vt 103.63 17.2791
vt 103.63 17.7165
f 3/15/4 10/16/4 11/17/4 8/18/4 4/19/4 

vt -49.4312 17.7165
vn -1 0 -0
vt -49.4312 17.2791
v 262.719 43.8889 -125.305
vt -49.3328 17.2791
vt -49.2343 17.2791
vt -49.2343 17.7165
f 2/20/5 7/21/5 12/22/5 10/23/5 3/24/5 

vt -38.1848 17.7165
vn 0.707107 0 -0.707107
v 262.969 44.4444 -125.305
vt -38.324 17.4978
vt -38.1848 17.2791
f 2/25/6 13/26/6 7/27/6

vt -103.531 36.2011
vn -8.16479e-18 -0.410365 -0.911922
vt -103.433 36.4409
vt -103.63 36.4409
f 13/28/7 2/29/7 1/30/7

vt 38.4632 17.7165
vn -0.707107 -9.32799e-29 0.707107
v 262.969 45.5556 -125.305
vt 38.324 17.9353
vt 38.1848 17.7165
vt 38.324 17.4978
f 4/31/8 14/32/8 2/33/8 13/34/8 

vt -49.2343 -26.3698
vn -0.911922 -0.410365 -0
vt -49.3328 -26.13
vt -49.4312 -26.3698
f 4/35/9 14/36/9 1/37/9

vt -103.433 36.3601
vn 8.16479e-18 -0.410365 -0.911922
vt -103.531 36.6
vt -103.63 36.3601
f 3/38/10 14/39/10 4/40/10

vt 49.3328 58.8411
vn 0.911922 -0.410365 -0
vt 49.2343 58.6012
vt 49.4312 58.6012
f 14/41/11 3/42/11 2/43/11

vt -108.23 17.7165
vn -0.707107 -9.32799e-29 -0.707107
vt -108.091 17.4978
vt -107.952 17.7165
vt -108.091 17.9353
f 1/44/12 13/45/12 3/46/12 14/47/12 

vt 49.3328 58.4421
vt 49.4312 58.682
vt 49.2343 58.682
f 13/48/11 1/49/11 4/50/11

vt -108.23 17.2791
vn -0.707107 -6.41014e-18 -0.707107
f 5/51/13 13/45/13 1/44/13

vt -103.531 -4.28779
vn -8.16479e-18 0.410365 -0.911922
vt -103.63 -4.52764
vt -103.531 -4.52764
vt -103.433 -4.52764
f 13/52/14 5/53/14 6/54/14 7/55/14 

vt 49.3328 -26.5289
vn 0.911922 0.410365 -0
vt 49.2343 -26.7687
vt 49.3328 -26.7687
vt 49.4312 -26.7687
f 13/56/15 8/57/15 9/58/15 5/59/15 

vt 103.531 36.2011
vn -8.16479e-18 0.410365 0.911922
vt 103.433 35.9612
vt 103.531 35.9612
vt 103.63 35.9612
f 13/60/16 10/61/16 11/62/16 8/63/16 

vt -49.3328 58.4421
vn -0.911922 0.410365 -0
vt -49.4312 58.2023
vt -49.3328 58.2023
vt -49.2343 58.2023
f 13/64/17 7/65/17 12/66/17 10/67/17 

usemtl Color_M05
v 262.719 0.47798 -125.555
vt -49.4312 0.188181
v 262.719 0.47798 -125.055
vt -49.2343 0.188181
f 7/21/5 15/68/5 16/69/5 10/23/5 12/22/5 

v 263.219 0.478872 -125.555
vt -103.63 0.188532
vt -103.433 0.188181
f 5/6/2 17/70/2 15/71/2 7/8/2 6/7/2 

v 263.219 0.47798 -125.055
vt 49.2343 0.188181
vt 49.4312 0.188532
f 8/11/3 18/72/3 17/73/3 5/13/3 9/12/3 

vt 103.433 0.188181
vt 103.63 0.188181
f 10/16/4 16/74/4 18/75/4 8/18/4 11/17/4 

usemtl Color_A06
v 263.219 0.22798 -125.055
vt 103.63 0.0897561
v 262.719 0.22798 -125.055
vt 103.433 0.0897561
f 19/76/4 18/75/4 16/74/4 20/77/4 

v 263.219 0.22798 -125.555
vt 49.4312 0.0897561
vt 49.2343 0.0897561
f 21/78/3 17/73/3 18/72/3 19/79/3 

v 262.719 0.22798 -125.555
vt -103.433 0.0897561
vt -103.63 0.0897561
f 22/80/2 15/71/2 17/70/2 21/81/2 

vt -49.2343 0.0897561
vt -49.4312 0.0897561
f 20/82/5 16/69/5 15/68/5 22/83/5 

usemtl FrontColor
vt 103.433 49.2344
vn -0.000891407 0.999999 0.000891407
vt 103.63 49.2344
vt 103.63 49.4313
vt 103.433 49.4313
f 16/84/18 18/85/18 17/86/18 15/87/18 

usemtl Translucent_Glass_Blue
vn 2.65735e-18 1 2.65735e-18
v 243.072 0.22798 -145.203
vt 95.6975 57.1664
f 22/2/19 23/88/19 20/3/19

v 282.866 0.22798 -145.203
vt 111.365 57.1664
f 23/88/19 22/2/19 24/89/19

f 24/89/19 22/2/19 21/1/19

usemtl FrontColor
f 21/1/1 22/2/1 20/3/1 19/4/1 

usemtl Color_A06
v 263.219 -0.0220196 -125.555
vt -103.63 -0.00866914
v 262.719 -0.0220196 -125.555
vt -103.433 -0.00866914
f 22/80/2 21/81/2 25/90/2 26/91/2 

v 263.219 -0.0220196 -125.055
vt 49.2343 -0.00866914
vt 49.4312 -0.00866914
f 21/78/3 19/79/3 27/92/3 25/93/3 

usemtl Translucent_Glass_Blue
v 282.866 0.22798 -105.408
vt 111.365 41.4991
f 19/4/19 28/94/19 21/1/19

f 20/3/19 28/94/19 19/4/19

v 243.072 0.22798 -105.408
vt 95.6975 41.4991
f 20/3/19 29/95/19 28/94/19

f 29/95/19 20/3/19 23/88/19

usemtl FrontColor
v 242.969 0 -105.305
vt -41.4588 39.2543
vn -0.911922 0.410365 1.10792e-18
vt -41.4991 39.3527
vt -57.1664 39.3527
v 242.969 0 -145.305
vt -57.2068 39.2543
f 30/96/20 29/97/20 23/98/20 31/99/20 

v 282.969 0 -105.305
vt 111.405 17.0132
vn 0 0.410365 0.911922
vt 111.365 17.1116
vt 95.6975 17.1116
vt 95.6571 17.0132
f 32/100/21 28/101/21 29/102/21 30/103/21 

v 282.969 0 -145.305
vt 57.2068 -45.7167
vt 57.1664 -45.6183
vt 41.4991 -45.6183
vt 41.4588 -45.7167
f 33/104/15 24/105/15 28/106/15 32/107/15 

vt -95.6571 -23.4756
vn 1.10792e-18 0.410365 -0.911922
vt -95.6975 -23.3772
vt -111.365 -23.3772
vt -111.405 -23.4756
f 31/108/22 23/109/22 24/110/22 33/111/22 

v 243.009 1.62148e-15 -145.805
vt -64.9337 39.5824
vn -0.896888 0.436261 -0.0725808
vt -64.7362 39.5824
vt -64.6992 39.6822
v 243.174 0.455961 -145.1
vt -64.6622 39.7819
v 243.194 0.455961 -145.35
vt -64.761 39.7819
v 243.215 0.455961 -145.6
vt -64.8597 39.7819
f 34/112/23 31/113/23 23/114/23 35/115/23 36/116/23 37/117/23 

v 282.929 9.97818e-16 -145.805
vt 111.389 57.4036
vn 7.79577e-18 1 2.6193e-15
vt 95.673 57.4036
vt 95.6571 57.2068
vt 111.405 57.2068
f 38/118/24 34/119/24 31/120/24 33/121/24 

vt 95.673 -23.5564
vn -1.49087e-18 -0.410365 0.911922
vt 111.389 -23.5564
v 282.723 0.455961 -145.6
vt 111.308 -23.3596
vt 95.7538 -23.3596
f 34/122/25 38/123/25 39/124/25 37/125/25 

v 283.264 0.455961 -145.6
vt 111.521 -23.3596
vn -2.37183e-16 -0.410365 0.911922
v 283.469 0 -145.805
vt 111.602 -23.5564
f 40/126/26 39/124/26 38/123/26 41/127/26 

v 263.239 44.955 -125.575
vt 103.638 -4.14814
vn -3.56274e-13 -0.410365 0.911922
v 262.969 44.3545 -125.846
vt 103.531 -4.40739
v 264.401 42.3729 -126.737
vt 104.095 -5.26293
f 42/128/27 43/129/27 39/124/27 40/126/27 44/130/27 

vt 103.433 -4.12873
vn -2.21299e-14 -0.410365 0.911922
v 262.699 44.955 -125.575
vt 103.425 -4.14814
vt 103.63 -4.12873
f 2/131/28 45/132/28 43/129/28 42/128/28 1/133/28 

v 262.699 44.955 -125.035
vt 49.2264 58.5818
vn 0.911922 -0.410365 -1.47668e-14
v 262.429 44.3545 -125.305
vt 49.3328 58.3225
vt 49.4392 58.5818
f 46/134/29 47/135/29 45/136/29 2/43/29 3/42/29 

v 242.674 0.455961 -105.01
vt 41.3427 39.3704
vn 0.911922 -0.410365 1.74926e-13
v 242.674 0.455961 -105.551
vt 41.5555 39.3704
v 262.208 43.8644 -124.544
vt 49.0332 58.111
f 48/137/30 49/138/30 47/135/30 46/134/30 50/139/30 

v 242.469 0 -104.805
vt 41.2619 39.1735
vn 0.911922 -0.410365 -1.89747e-15
v 242.469 2.81196e-15 -105.346
vt 41.4747 39.1735
f 51/140/31 52/141/31 49/138/31 48/137/31 

vt 95.4602 41.2619
vn 7.18358e-16 1 1.09302e-15
v 243.009 1.83298e-15 -104.805
vt 95.673 41.2619
vt 95.6571 41.4588
vt 95.4602 41.4747
f 51/142/32 53/143/32 30/144/32 52/145/32 

vt -95.541 17.1293
vn 6.77667e-16 -0.410365 -0.911922
v 243.215 0.455961 -105.01
vt -95.7538 17.1293
vt -95.673 16.9324
vt -95.4602 16.9324
f 48/146/33 54/147/33 53/148/33 51/149/33 

vt -103.232 35.8699
vn 0 -0.410365 -0.911922
vt -103.425 36.3407
v 262.969 44.3545 -124.765
vt -103.531 36.0815
f 50/150/34 46/151/34 55/152/34 54/147/34 48/146/34 

v 263.239 44.955 -125.035
vt -103.638 36.3407
vn -1.10739e-14 -0.410365 -0.911922
f 56/153/35 55/152/35 46/151/35 3/38/35 4/40/35 

v 283.264 0.455961 -105.01
vt -111.521 17.1293
vn -1.75553e-13 -0.410365 -0.911922
v 282.723 0.455961 -105.01
vt -111.308 17.1293
v 263.859 43.577 -124.415
vt -103.882 35.7458
f 57/154/36 58/155/36 55/152/36 56/153/36 59/156/36 

v 283.469 0 -104.805
vt -111.602 16.9324
vn 3.89659e-16 -0.410365 -0.911922
v 282.929 -5.51751e-16 -104.805
vt -111.389 16.9324
f 60/157/37 61/158/37 58/155/37 57/154/37 

v 283.469 1.97398e-15 -105.346
vt 111.602 41.4747
vn -2.27928e-15 1 2.39399e-15
vt 111.405 41.4588
vt 111.389 41.2619
vt 111.602 41.2619
f 62/159/38 32/160/38 61/161/38 60/162/38 

vt 114.386 14.1076
vn 0.0725808 0.436261 0.896888
vt 114.584 14.1076
v 283.264 0.455961 -105.551
vt 114.51 14.3071
v 283.014 0.455961 -105.531
vt 114.411 14.3071
v 282.764 0.455961 -105.51
vt 114.312 14.3071
vt 114.349 14.2074
f 32/163/39 62/164/39 63/165/39 64/166/39 65/167/39 28/168/39 

v 283.469 2.26916e-15 -145.265
vt 111.602 57.1909
vn -4.24313e-15 1 3.68975e-18
f 66/169/40 33/121/40 32/160/40 62/159/40 

vt -106.625 -28.7961
vn 0.0725808 0.436261 -0.896888
vt -106.428 -28.7961
vt -106.391 -28.6963
v 282.764 0.455961 -145.1
vt -106.354 -28.5966
v 283.014 0.455961 -145.08
vt -106.452 -28.5966
v 283.264 0.455961 -145.06
vt -106.551 -28.5966
f 66/170/41 33/171/41 24/172/41 67/173/41 68/174/41 69/175/41 

vt 111.602 57.4036
vn -1.0444e-15 1 -1.30792e-15
f 41/176/42 38/118/42 33/121/42 66/169/42 

vt 48.0343 -50.4564
vn 0.896888 0.436261 -0.0725808
vt 48.2318 -50.4564
vt 48.1578 -50.2569
v 282.744 0.455961 -145.35
vt 48.059 -50.2569
vt 47.9603 -50.2569
vt 47.9973 -50.3567
f 33/177/43 38/178/43 39/179/43 70/180/43 67/181/43 24/182/43 

vt -111.423 57.118
vn -6.93059e-16 -1 1.7129e-16
vt -111.324 57.126
vt -111.316 57.2244
vt -111.308 57.3229
vt -111.521 57.3229
vt -111.521 57.1101
f 68/183/44 67/184/44 70/185/44 39/186/44 40/187/44 69/188/44 

vn -2.25597e-15 -1 -1.54398e-34
vt -111.423 41.5475
vt -111.324 41.5395
f 67/184/45 68/183/45 64/189/45 65/190/45 

vt -99.3047 -9.59323
v 263.364 44.1217 -125.43
vt -99.3656 -9.49136
f 5/191/41 71/192/41 68/174/41 67/173/41 

vt -49.3328 69.5078
vn -0.848458 0.529263 -2.82551e-17
v 263.364 44.1217 -125.305
vt -49.3328 69.6159
vt -49.382 69.6159
vt -49.4312 69.5078
f 9/193/46 72/194/46 71/195/46 5/196/46 

vt -49.2343 69.5078
vn -0.848458 0.529263 8.47654e-17
v 263.364 44.1217 -125.18
vt -49.2836 69.6159
f 8/197/47 73/198/47 72/194/47 9/193/47 

vt 107.324 33.4123
vt 107.263 33.3104
f 65/167/39 64/166/39 73/199/39 8/200/39 

v 282.744 0.455961 -105.26
vt -111.316 41.4411
vn -6.92421e-16 -1 -3.01094e-16
vt -111.521 41.5555
vt -111.521 41.3427
vt -111.308 41.3427
f 74/201/48 65/190/48 64/189/48 63/202/48 57/203/48 58/204/48 

vn 1.22061e-16 -1 3.52496e-15
v 243.194 0.455961 -105.26
vt -95.7458 41.4411
v 243.174 0.455961 -105.51
vt -95.7379 41.5395
f 65/190/49 74/201/49 75/205/49 76/206/49 

vt 57.4328 -27.7816
vn 0.896888 0.436261 0.0725808
v 263.094 44.1217 -124.91
vt 57.3719 -27.6797
vt 50.285 -46.7849
vt 50.3838 -46.7849
f 8/207/50 77/208/50 74/209/50 65/210/50 

vt -103.531 -11.3973
vn 5.65103e-17 0.529263 -0.848458
v 262.969 44.1217 -124.91
vt -103.531 -11.2893
vt -103.58 -11.2893
vt -103.63 -11.3973
f 11/211/51 78/212/51 77/213/51 8/214/51 

vt -103.433 -11.3973
vn -5.65103e-17 0.529263 -0.848458
v 262.844 44.1217 -124.91
vt -103.482 -11.2893
f 10/215/52 79/216/52 78/212/52 11/211/52 

vt -33.6818 43.2539
vn -0.896888 0.436261 0.0725808
vt -33.5831 43.2539
vt -40.6699 62.3591
vt -40.7309 62.2572
f 76/217/53 75/218/53 79/219/53 10/220/53 

v 242.924 0.455961 -105.531
vt -95.6395 41.5475
vn -6.31703e-15 -1 2.14288e-15
vt -95.7538 41.3427
vt -95.541 41.3427
vt -95.541 41.5555
f 80/221/54 76/206/54 75/205/54 54/222/54 48/223/54 49/224/54 

vn -5.21694e-15 -1 -1.14944e-16
v 242.924 0.455961 -145.08
vt -95.6395 57.118
vt -95.7379 57.126
f 76/206/55 80/221/55 81/225/55 35/226/55 

vt 99.1243 40.5968
vn -0.0725808 0.436261 0.896888
v 262.574 44.1217 -125.18
vt 99.0634 40.6987
vt 91.9765 21.5935
vt 92.0753 21.5935
f 10/227/56 82/228/56 80/229/56 76/230/56 

vt 49.3328 -40.0825
vn 0.848458 0.529263 -0
v 262.574 44.1217 -125.305
vt 49.3328 -39.9745
vt 49.2836 -39.9745
vt 49.2343 -40.0825
f 12/231/57 83/232/57 82/233/57 10/234/57 

vt 49.4312 -40.0825
vn 0.848458 0.529263 2.82551e-17
v 262.574 44.1217 -125.43
vt 49.382 -39.9745
f 7/235/58 84/236/58 83/232/58 12/231/58 

vt -100.034 -21.3102
vn -0.0725808 0.436261 -0.896888
vt -99.935 -21.3102
vt -107.022 -2.20496
vt -107.083 -2.30682
f 35/237/59 81/238/59 84/239/59 7/240/59 

vt -95.7458 57.2244
vn 8.30405e-16 -1 9.60847e-16
v 242.674 0.455961 -145.06
vt -95.541 57.1101
v 242.674 0.455961 -145.6
vt -95.541 57.3229
vt -95.7538 57.3229
f 36/241/60 35/226/60 81/225/60 85/242/60 86/243/60 37/244/60 

vn -5.34771e-18 -1 2.53797e-15
f 35/226/61 36/241/61 70/185/61 67/184/61 

vt -57.6132 58.7852
v 262.844 44.1217 -125.7
vt -57.6741 58.8871
f 7/245/23 87/246/23 36/116/23 35/115/23 

vt 103.531 40.8227
vn -2.82551e-17 0.529263 0.848458
v 262.969 44.1217 -125.7
vt 103.531 40.9307
vt 103.482 40.9307
vt 103.433 40.8227
f 6/247/62 88/248/62 87/249/62 7/250/62 

vt 103.63 40.8227
vn 2.82551e-17 0.529263 0.848458
v 263.094 44.1217 -125.7
vt 103.58 40.9307
f 5/251/63 89/252/63 88/248/63 6/247/63 

vt 40.9722 -31.1517
vt 40.9112 -31.2536
f 67/181/43 70/180/43 89/253/43 5/254/43 

vt 41.0331 -31.0499
f 43/255/43 89/253/43 70/180/43 39/179/43 

v 262.969 44.3545 -125.646
vt 49.4668 -33.5882
vn 0.881046 0.473031 4.2979e-17
vt 49.4884 -33.6923
vt 49.5455 -33.5882
f 90/256/64 89/257/64 43/258/64

vt 103.531 5.67098
vn 4.23084e-18 -0.228991 0.973429
vt 103.482 5.57682
vt 103.531 5.57682
vt 103.58 5.57682
f 90/259/65 87/260/65 88/261/65 89/262/65 

vt -49.4884 64.2546
vn -0.881046 0.473031 4.2979e-17
vt -49.4668 64.3586
vt -49.5455 64.3586
f 87/263/66 90/264/66 43/265/66

vt -57.7351 58.989
f 37/117/23 36/116/23 87/246/23 43/266/23 

vn 4.45642e-18 -1 2.39697e-15
f 39/186/67 70/185/67 36/241/67 37/244/67 

usemtl Translucent_Glass_Blue
vt 103.482 -4.46752
vn 3.20704e-17 -0.410365 0.911922
vt 95.7458 -23.3192
vt 111.316 -23.3192
vt 103.58 -4.46752
vt 103.531 -4.46752
f 87/267/68 36/268/68 70/269/68 89/270/68 88/271/68 

usemtl FrontColor
vn -3.71498e-13 -0.410365 0.911922
v 259.814 38.5442 -128.46
vt 102.289 -6.91587
vt 95.541 -23.3596
f 37/125/69 43/129/69 45/132/69 91/272/69 86/273/69 

vt 50.5749 55.8141
vn 0.911922 -0.410365 1.85749e-13
vt 57.1101 39.3704
vt 57.3229 39.3704
f 91/274/70 45/136/70 47/135/70 85/275/70 86/276/70 

vt -106.961 -2.10309
vt -99.8363 -21.3102
f 47/277/59 84/239/59 81/238/59 85/278/59 

v 262.629 44.3545 -125.305
vt -103.397 -7.95073
vn 0 0.473031 -0.881046
vt -103.376 -8.05477
vt -103.318 -7.95073
f 92/279/71 84/280/71 47/281/71

vt 49.3328 40.6754
vn 0.973429 -0.228991 -0
vt 49.2836 40.5812
vt 49.3328 40.5812
vt 49.382 40.5812
f 92/282/72 82/283/72 83/284/72 84/285/72 

vt 103.376 38.6171
vn 4.2979e-17 0.473031 0.881046
vt 103.397 38.7211
vt 103.318 38.7211
f 82/286/73 92/287/73 47/288/73

vt 91.8778 21.5935
vt 99.0024 40.8006
f 49/289/56 80/229/56 82/228/56 47/290/56 

vn -5.07594e-15 -1 -1.07274e-17
f 85/242/74 81/225/74 80/221/74 49/224/74 

vt -99.9598 -21.5096
v 242.469 -1.19849e-15 -145.265
vt -99.7623 -21.5096
vt -99.9968 -21.4099
f 31/291/59 93/292/59 85/278/59 81/238/59 35/237/59 23/293/59 

v 242.469 0 -145.805
vt 95.4602 57.4036
vn -2.6259e-15 1 2.59179e-15
vt 95.4602 57.1909
f 94/294/75 93/295/75 31/120/75 34/119/75 

vn 0.911922 -0.410365 -6.60725e-16
vt 57.1909 39.1735
vt 57.4036 39.1735
f 86/276/76 85/275/76 93/296/76 94/297/76 

vn 0.911922 -0.410365 2.92584e-17
f 85/275/77 49/138/77 52/141/77 93/296/77 

vt 91.8038 21.394
vt 92.0013 21.394
vt 92.0383 21.4938
f 52/298/56 30/299/56 29/300/56 76/230/56 80/229/56 49/289/56 

vn 1.61348e-15 1 -5.01305e-17
f 93/295/78 52/145/78 30/144/78 31/120/78 

vt -33.6078 43.0544
vt -33.4103 43.0544
vt -33.4843 43.2539
vt -33.6448 43.1541
f 30/301/53 53/302/53 54/303/53 75/218/53 76/217/53 29/304/53 

vn 2.98091e-17 1 -1.28123e-15
f 32/160/79 30/144/79 53/143/79 61/161/79 

vn -8.57253e-18 -0.410365 -0.911922
f 54/147/80 58/155/80 61/158/80 53/148/80 

vn 5.35218e-17 -1 3.38396e-15
f 54/222/81 75/205/81 74/201/81 58/204/81 

vt -40.609 62.461
f 55/305/53 79/219/53 75/218/53 54/303/53 

v 262.969 44.3545 -124.965
vt -49.1987 64.3586
vn -0.881046 0.473031 -2.14895e-17
vt -49.1772 64.2546
vt -49.12 64.3586
f 95/306/82 79/307/82 55/308/82

vt -103.531 28.2645
vn 3.58769e-18 -0.228991 -0.973429
vt -103.58 28.1703
vt -103.531 28.1703
vt -103.482 28.1703
f 95/309/83 77/310/83 78/311/83 79/312/83 

vt 49.1772 -33.6923
vn 0.881046 0.473031 -2.14895e-17
vt 49.1987 -33.5882
vt 49.12 -33.5882
f 77/313/84 95/314/84 55/315/84

vt 50.1863 -46.7849
vt 57.3109 -27.5779
f 58/316/50 74/209/50 77/208/50 55/317/50 

vt 50.1123 -46.9844
vt 50.3098 -46.9844
vt 50.3468 -46.8847
f 61/318/50 32/319/50 28/320/50 65/210/50 74/209/50 58/316/50 

vt 95.7379 17.2101
vn -3.19962e-17 0.410365 0.911922
vt 111.324 17.2101
f 76/321/85 29/102/85 28/101/85 65/322/85 

vt -57.126 39.4511
vn -0.911922 0.410365 3.51678e-17
vt -41.5395 39.4511
f 35/323/86 23/98/86 29/97/86 76/324/86 

vt -111.324 -23.2788
vn 3.26491e-18 0.410365 -0.911922
vt -95.7379 -23.2788
f 67/325/87 24/110/87 23/109/87 35/326/87 

vt 41.5395 -45.5199
vt 57.126 -45.5199
f 65/327/15 28/106/15 24/105/15 67/328/15 

usemtl Translucent_Glass_Blue
f 24/89/19 21/1/19 28/94/19

vt -103.58 36.0213
vn -6.94858e-17 -0.410365 -0.911922
vt -111.316 17.1697
vt -95.7458 17.1697
vt -103.482 36.0213
vt -103.531 36.0213
f 77/329/88 74/330/88 75/331/88 79/332/88 78/333/88 

usemtl FrontColor
vt 95.4602 -23.5564
vn 3.55775e-16 -0.410365 0.911922
f 94/334/89 34/122/89 37/125/89 86/273/89 

usemtl Translucent_Glass_Blue
vt 49.2836 58.2624
vn 0.911922 -0.410365 4.27263e-32
vt 41.5475 39.4108
vt 57.118 39.4108
vt 49.382 58.2624
vt 49.3328 58.2624
f 82/335/90 80/336/90 81/337/90 84/338/90 83/339/90 

usemtl FrontColor
vt 103.531 49.2343
vt 103.63 49.3328
vt 103.531 49.4312
vt 103.433 49.3328
f 10/3/1 11/340/1 8/4/1 9/341/1 5/1/1 6/342/1 7/2/1 12/343/1 

vn -2.39697e-15 -1 -8.91284e-19
f 63/202/91 64/189/91 68/183/91 69/188/91 

v 263.509 44.3545 -125.305
vt 107.385 33.5142
f 96/344/39 73/199/39 64/166/39 63/165/39 

v 263.309 44.3545 -125.305
vt 103.665 38.7211
vn -4.2979e-17 0.473031 0.881046
vt 103.687 38.6171
vt 103.744 38.7211
f 97/345/92 73/346/92 96/347/92

vt -49.3328 -6.73993
vn -0.973429 -0.228991 -0
vt -49.382 -6.83409
vt -49.3328 -6.83409
vt -49.2836 -6.83409
f 97/348/93 71/349/93 72/350/93 73/351/93 

vt -103.687 -8.05477
vn -2.14895e-17 0.473031 -0.881046
vt -103.665 -7.95073
vt -103.744 -7.95073
f 71/352/94 97/353/94 96/354/94

vt -99.4266 -9.3895
f 69/175/41 68/174/41 71/192/41 96/355/41 

usemtl Translucent_Glass_Blue
vt -49.3328 -26.7086
vn -0.911922 -0.410365 2.40945e-17
vt -49.382 -26.7086
vt -57.118 -45.5603
vt -41.5475 -45.5603
vt -49.2836 -26.7086
f 72/356/95 71/357/95 68/358/95 64/359/95 73/360/95 

usemtl FrontColor
vt -57.3229 -45.6007
vt -57.1101 -45.6007
vt -49.3328 -26.6485
vt -49.4392 -26.3892
vt -49.8966 -27.504
f 40/361/9 69/362/9 96/363/9 42/364/9 44/365/9 

vt -57.4036 -45.7975
vn -0.911922 -0.410365 6.43784e-16
vt -57.1909 -45.7975
f 41/366/96 66/367/96 69/362/96 40/361/96 

vt -41.5555 -45.6007
vn -0.911922 -0.410365 -1.86359e-18
vt -41.4747 -45.7975
f 63/368/97 69/362/97 66/367/97 62/369/97 

vt -41.3427 -45.6007
vn -0.911922 -0.410365 -5.25192e-16
vt -41.2619 -45.7975
f 57/370/98 63/368/98 62/369/98 60/371/98 

vt -48.9822 -26.9841
vn -0.911922 -0.410365 1.75553e-13
vt -49.2264 -26.3892
f 59/372/99 56/373/99 96/363/99 63/368/99 57/370/99 

vn -0.911922 -0.410365 2.91213e-14
f 42/364/100 96/363/100 56/373/100 4/35/100 1/37/100 

vn 8.16479e-18 0.410365 -0.911922
vt -103.433 -4.04795
vt -103.63 -4.04795
f 13/52/101 3/374/101 4/375/101

vt -107.952 17.2791
vn -0.707107 0 -0.707107
f 10/376/102 3/46/102 13/45/102

vt -49.3328 -26.5289
vt -49.2343 -26.289
vt -49.4312 -26.289
f 13/377/9 3/378/9 2/379/9

vn -0.707107 -2.05169e-27 0.707107
vt 38.4632 17.2791
f 13/34/103 8/380/103 4/31/103

vt 103.531 -3.88888
vn 8.16479e-18 -0.410365 0.911922
f 14/381/104 2/131/104 1/133/104

usemtl Color_A06
v 262.719 -0.0220196 -125.055
vt 103.433 -0.00866914
vt 103.63 -0.00866914
f 19/76/4 20/77/4 98/382/4 27/383/4 

vt -49.4312 -0.00866914
vt -49.2343 -0.00866914
f 20/82/5 22/83/5 26/384/5 98/385/5 

vt -103.433 49.4312
vn 0 -1 -0
vt -103.63 49.4312
vt -103.63 49.2343
vt -103.433 49.2343
f 26/386/105 25/387/105 27/388/105 98/389/105 

